<?xml version="1.0" encoding="utf-8"?>
<svg id="Layer_1" data-name="Layer 1" viewBox="0 0 651 256.53" xmlns="http://www.w3.org/2000/svg">
  <defs>
    <style>.cls-1,.cls-3,.cls-4,.cls-5,.cls-6,.cls-7,.cls-8,.cls-9{fill:none;}.cls-1{stroke:#f8db57;}.cls-1,.cls-3,.cls-4,.cls-5,.cls-6,.cls-7,.cls-8{stroke-miterlimit:10;}.cls-2{fill:#f8db57;}.cls-3,.cls-4{stroke:#000;}.cls-3,.cls-9{stroke-linecap:round;}.cls-3,.cls-4,.cls-5,.cls-9{stroke-width:1.5px;}.cls-5,.cls-6,.cls-8,.cls-9{stroke:#231f20;}.cls-6{stroke-width:0.75px;}.cls-7{stroke:#0a0a0a;}.cls-9{stroke-linejoin:round;}.cls-10{fill:#1c1c1c;}</style>
  </defs>
  <title>Hero</title>
  <path class="cls-3" d="M 238.186 57.736 C 244.046 57.736 244.046 61.736 249.896 61.736 C 255.746 61.736 255.756 57.736 261.606 57.736 C 267.456 57.736 267.466 61.736 273.316 61.736 C 279.166 61.736 279.176 57.736 285.036 57.736 C 290.896 57.736 290.886 61.736 296.746 61.736 C 302.606 61.736 302.606 57.736 308.466 57.736 C 314.326 57.736 314.326 61.736 320.186 61.736" style="fill: none; stroke: rgb(0, 0, 0); stroke-linecap: round; stroke-miterlimit: 10; stroke-width: 1.5px;"/>
  <path class="cls-3" d="M 464.186 209.736 C 470.896 209.736 470.896 213.736 477.616 213.736 C 484.336 213.736 484.326 209.736 491.036 209.736 C 497.746 209.736 497.746 213.736 504.456 213.736 C 511.166 213.736 511.176 209.736 517.886 209.736 C 524.596 209.736 524.606 213.736 531.316 213.736 C 538.026 213.736 538.036 209.736 544.746 209.736 C 551.456 209.736 551.466 213.736 558.186 213.736" style="fill: none; stroke: rgb(0, 0, 0); stroke-linecap: round; stroke-miterlimit: 10; stroke-width: 1.5px;"/>
  <rect class="cls-4" x="81.28" y="52.48" width="31.71" height="32.17" transform="matrix(0.959412, 0.282007, -0.282007, 0.959412, 37.456242, -29.393976)" style="fill: none; stroke: rgb(0, 0, 0); stroke-miterlimit: 10; stroke-width: 1.5px;"/>
  <rect class="cls-4" x="41.1" y="198.62" width="12.08" height="12.25" transform="matrix(0.96806, -0.250718, 0.250718, 0.96806, -35.643761, 13.566024)" style="fill: none; stroke: rgb(0, 0, 0); stroke-miterlimit: 10; stroke-width: 1.5px;"/>
  <rect class="cls-5" x="557.91" y="71.39" width="2.69" height="13.46" transform="matrix(0.037516, -0.999296, 0.999296, 0.037516, 474.42627, 629.255981)" style="fill: none; stroke: rgb(35, 31, 32); stroke-miterlimit: 10; stroke-width: 1.5px;"/>
  <path class="cls-5" d="M 565.186 42.036 L 586.706 42.846 L 586.496 48.206 L 589.196 48.306 L 589.396 42.926 C 589.408 41.469 588.262 40.266 586.806 40.206 L 565.286 39.396 C 563.8 39.34 562.55 40.5 562.496 41.986 L 562.296 47.366 L 564.986 47.466 Z M 565.186 42.036" style="fill: none; stroke: rgb(35, 31, 32); stroke-miterlimit: 10; stroke-width: 1.5px;"/>
  <rect class="cls-5" x="559.45" y="64.72" width="2.69" height="16.15" transform="matrix(0.037516, -0.999296, 0.999296, 0.037516, 481.236267, 625.675964)" style="fill: none; stroke: rgb(35, 31, 32); stroke-miterlimit: 10; stroke-width: 1.5px;"/>
  <path class="cls-5" d="M 594.466 51.206 L 556.806 49.806 C 555.32 49.75 554.07 50.91 554.016 52.396 L 553.416 68.536 C 553.36 70.023 554.52 71.272 556.006 71.326 L 561.386 71.526 L 561.086 79.596 C 561.024 81.081 562.181 82.332 563.666 82.386 L 585.186 83.206 C 586.676 83.268 587.932 82.107 587.986 80.616 L 588.286 72.546 L 593.666 72.746 C 595.152 72.803 596.402 71.643 596.456 70.156 L 597.056 54.016 C 597.124 52.523 595.96 51.261 594.466 51.206 Z M 585.286 80.506 L 563.776 79.696 L 564.376 63.556 L 585.896 64.366 Z M 591.476 59.206 C 589.407 59.128 588.198 56.839 589.301 55.086 C 590.403 53.333 592.99 53.431 593.957 55.263 C 594.177 55.679 594.283 56.146 594.266 56.616 C 594.212 58.103 592.962 59.263 591.476 59.206 Z M 591.476 59.206" style="fill: none; stroke: rgb(35, 31, 32); stroke-miterlimit: 10; stroke-width: 1.5px;"/>
  <path class="cls-6" d="M 292.036 182.746 C 290.134 183.534 289.236 185.719 290.036 187.616 L 296.576 202.906 C 296.625 202.997 296.689 203.078 296.766 203.146 L 301.876 207.266 C 301.92 207.312 301.975 207.347 302.036 207.366 C 302.197 207.431 302.376 207.431 302.536 207.366 C 302.755 207.265 302.898 207.048 302.906 206.806 L 303.146 199.426 C 303.146 199.334 303.129 199.243 303.096 199.156 L 296.866 184.706 C 296.088 182.795 293.893 181.894 291.996 182.706 Z M 298.236 200.386 L 299.236 200.796 C 299.562 200.933 299.937 200.775 300.066 200.446 L 300.536 199.276 L 301.876 199.816 L 301.776 202.956 C 301.433 202.992 301.096 203.076 300.776 203.206 C 300.388 203.37 300.046 203.623 299.776 203.946 L 297.866 202.396 Z M 292.666 190.446 C 291.924 188.713 293.337 186.825 295.209 187.049 C 295.421 187.075 295.628 187.128 295.826 187.206 C 296.428 187.449 296.91 187.92 297.166 188.516 L 297.166 188.516 L 301.356 198.236 L 300.436 197.866 C 300.113 197.736 299.746 197.893 299.616 198.216 L 299.146 199.396 L 297.966 198.926 C 297.796 198.842 297.596 198.842 297.426 198.926 C 297.261 199.018 297.147 199.18 297.116 199.366 L 296.936 200.416 L 292.656 190.416 Z M 291.246 187.116 C 290.706 185.874 291.286 184.43 292.536 183.906 C 293.133 183.651 293.809 183.651 294.406 183.906 C 295.01 184.146 295.493 184.618 295.746 185.216 L 295.746 185.216 L 296.076 185.976 C 294.301 185.388 292.366 186.216 291.566 187.906 L 291.246 187.136 Z M 295.166 188.466 C 295.033 188.147 294.664 187.998 294.346 188.136 C 294.025 188.274 293.874 188.643 294.006 188.966 L 297.516 197.176 C 297.584 197.331 297.71 197.453 297.866 197.516 C 298.02 197.581 298.193 197.581 298.346 197.516 C 298.667 197.379 298.815 197.007 298.676 196.686 L 295.186 188.466 Z M 295.166 188.466" style="fill: none; stroke: rgb(35, 31, 32); stroke-miterlimit: 10; stroke-width: 0.75px;"/>
  <circle class="cls-5" cx="440.686" cy="98.236" r="15.5" style="fill: none; stroke: rgb(35, 31, 32); stroke-miterlimit: 10; stroke-width: 1.5px;"/>
  <circle class="cls-5" cx="416.186" cy="54.736" r="7" style="fill: none; stroke: rgb(35, 31, 32); stroke-miterlimit: 10; stroke-width: 1.5px;"/>
  <path class="cls-4" d="M 169.456 140.966 L 154.256 143.656 C 153.847 143.749 153.441 143.488 153.356 143.076 L 150.356 126.186 L 156.526 118.076 L 165.116 116.556 C 165.522 116.47 165.921 116.73 166.006 117.136 L 170.086 140.136 C 170.129 140.536 169.853 140.9 169.456 140.966 Z" style="fill: none; stroke: rgb(0, 0, 0); stroke-miterlimit: 10; stroke-width: 1.5px;"/>
  <path class="cls-4" d="M 150.356 126.146 L 156.636 125.036 C 157.218 124.981 157.628 124.442 157.526 123.866 L 156.526 118.046" style="fill: none; stroke: rgb(0, 0, 0); stroke-miterlimit: 10; stroke-width: 1.5px;"/>
  <line class="cls-3" x1="153.656" y1="129.296" x2="161.216" y2="127.956" style="fill: none; stroke: rgb(0, 0, 0); stroke-linecap: round; stroke-miterlimit: 10; stroke-width: 1.5px;"/>
  <line class="cls-3" x1="154.616" y1="134.496" x2="158.326" y2="133.836" style="fill: none; stroke: rgb(0, 0, 0); stroke-linecap: round; stroke-miterlimit: 10; stroke-width: 1.5px;"/>
  <line class="cls-3" x1="155.286" y1="138.266" x2="165.236" y2="136.506" style="fill: none; stroke: rgb(0, 0, 0); stroke-linecap: round; stroke-miterlimit: 10; stroke-width: 1.5px;"/>
  <line class="cls-3" x1="154.166" y1="131.926" x2="159.176" y2="131.036" style="fill: none; stroke: rgb(0, 0, 0); stroke-linecap: round; stroke-miterlimit: 10; stroke-width: 1.5px;"/>
  <path class="cls-7" d="M 323.286 111.206 L 324.476 111.206 C 324.684 111.206 324.852 111.378 324.846 111.586 L 324.846 117.436 C 324.852 117.642 325.02 117.807 325.226 117.806 L 329.646 117.806 C 329.856 117.806 330.026 117.977 330.026 118.186 L 330.026 120.646 C 330.026 120.855 329.854 121.022 329.646 121.016 L 325.186 121.016 C 324.976 121.016 324.806 121.187 324.806 121.396 L 324.806 129.766 C 324.806 131.336 325.486 132.366 327.666 132.366 L 329.966 132.366 C 330.176 132.366 330.346 132.537 330.346 132.746 L 330.346 135.096 C 330.346 135.306 330.176 135.476 329.966 135.476 L 327.666 135.476 C 323.956 135.476 321.596 133.866 321.596 129.766 L 321.596 121.396 C 321.596 121.19 321.432 121.022 321.226 121.016 L 318.406 121.016 C 318.198 121.022 318.026 120.855 318.026 120.646 L 318.026 118.206 C 318.026 117.997 318.196 117.826 318.406 117.826 L 321.226 117.826 C 321.428 117.821 321.591 117.659 321.596 117.456 L 321.596 113.036 L 321.596 113.036 L 323.286 111.206 Z" style="fill: none; stroke: rgb(10, 10, 10); stroke-miterlimit: 10;"/>
  <path class="cls-7" d="M 340.086 129.296 C 340.057 129.185 339.917 129.147 339.835 129.229 C 339.817 129.247 339.803 129.271 339.796 129.296 L 336.186 135.376 C 336.076 135.556 335.936 135.736 335.396 135.736 L 333.326 135.736 C 332.646 135.736 332.396 135.126 332.756 134.556 L 337.756 126.556 C 337.861 126.417 337.861 126.226 337.756 126.086 L 333.286 119.086 C 332.914 118.696 333.104 118.05 333.628 117.923 C 333.703 117.905 333.78 117.9 333.856 117.906 L 335.856 117.906 C 336.396 117.906 336.536 118.086 336.646 118.266 L 339.716 123.446 C 339.746 123.558 339.885 123.596 339.967 123.514 C 339.986 123.496 339.999 123.472 340.006 123.446 L 343.186 118.206 C 343.286 118.026 343.436 117.846 343.966 117.846 L 345.966 117.846 C 346.502 117.789 346.899 118.334 346.68 118.826 C 346.647 118.9 346.602 118.968 346.546 119.026 L 342.076 126.026 C 341.968 126.164 341.968 126.359 342.076 126.496 L 347.076 134.496 C 347.436 135.066 347.186 135.676 346.506 135.676 L 344.486 135.676 C 343.946 135.676 343.806 135.496 343.696 135.316 Z" style="fill: none; stroke: rgb(10, 10, 10); stroke-miterlimit: 10;"/>
  <path class="cls-7" d="M 354.186 111.206 L 355.376 111.206 C 355.584 111.206 355.752 111.378 355.746 111.586 L 355.746 117.436 C 355.752 117.642 355.92 117.807 356.126 117.806 L 360.546 117.806 C 360.756 117.806 360.926 117.977 360.926 118.186 L 360.926 120.646 C 360.926 120.855 360.754 121.022 360.546 121.016 L 356.186 121.016 C 355.976 121.016 355.806 121.187 355.806 121.396 L 355.806 129.766 C 355.806 131.336 356.486 132.366 358.666 132.366 L 360.966 132.366 C 361.176 132.366 361.346 132.537 361.346 132.746 L 361.346 135.096 C 361.346 135.306 361.176 135.476 360.966 135.476 L 358.666 135.476 C 354.956 135.476 352.596 133.866 352.596 129.766 L 352.596 121.396 C 352.596 121.19 352.432 121.022 352.226 121.016 L 349.406 121.016 C 349.198 121.022 349.026 120.855 349.026 120.646 L 349.026 118.206 C 349.026 117.997 349.196 117.826 349.406 117.826 L 352.186 117.826 C 352.388 117.821 352.551 117.659 352.556 117.456 L 352.556 113.036 L 352.556 113.036 L 354.186 111.206 Z" style="fill: none; stroke: rgb(10, 10, 10); stroke-miterlimit: 10;"/>
  <path class="cls-4" d="M 188.756 214.696 L 202.106 201.346 C 205.36 197.834 203.592 192.116 198.923 191.054 C 196.92 190.599 194.822 191.161 193.316 192.556 L 177.186 208.676 C 176.6 209.276 176.093 209.948 175.676 210.676 C 174.685 212.356 174.961 214.494 176.346 215.866 C 177.276 216.785 178.565 217.243 179.866 217.116 C 180.576 217.028 181.259 216.786 181.866 216.406 C 182.323 216.084 182.755 215.726 183.156 215.336 L 193.376 205.116 C 193.832 204.628 194.219 204.08 194.526 203.486 C 194.595 203.313 194.655 203.136 194.706 202.956 C 194.756 202.669 194.756 202.374 194.706 202.086 C 194.634 201.596 194.414 201.139 194.076 200.776 L 193.896 200.596 C 193.231 200.002 192.292 199.824 191.456 200.136 C 190.678 200.429 189.972 200.886 189.386 201.476 L 182.386 208.476" style="fill: none; stroke: rgb(0, 0, 0); stroke-miterlimit: 10; stroke-width: 1.5px;"/>
  <circle class="cls-8" cx="315.686" cy="134.236" r="2" style="fill: none; stroke: rgb(35, 31, 32); stroke-miterlimit: 10;"/>
  <polyline class="cls-9" points="578.216 144.686 572.956 144.686 567.706 144.686 572.956 144.686 572.956 163.716 578.216 163.716 572.956 163.716 567.706 163.716" style="fill: none; stroke: rgb(35, 31, 32); stroke-linecap: round; stroke-linejoin: round; stroke-width: 1.5px;"/>
  <rect class="cls-5" x="550.186" y="147.966" width="33" height="11.82" style="fill: none; stroke: rgb(35, 31, 32); stroke-miterlimit: 10; stroke-width: 1.5px;"/>
  <g transform="matrix(1, 0, 0, 1, 14.186242, -4.793973)">
    <path id="path3016-2" data-name="path3016" class="cls-10" d="M 222.11 125.63 L 224.81 126.19 C 224.752 126.651 224.668 127.108 224.56 127.56 C 223.64 127.37 222.73 127.17 221.81 126.99 Z" style="fill: rgb(28, 28, 28);"/>
    <path id="path3018-2" data-name="path3018" class="cls-10" d="M 220.44 126.73 C 220.9 126.82 221.36 126.92 221.81 126.99 C 220.77 132.023 219.723 137.053 218.67 142.08 C 218.21 142 217.75 141.9 217.3 141.8 C 217.38 141.347 217.47 140.897 217.57 140.45 C 217.12 140.33 216.67 140.24 216.21 140.15 C 216.29 139.68 216.38 139.22 216.5 138.77 C 216.96 138.84 217.41 138.94 217.87 139.03 C 218.717 134.93 219.573 130.83 220.44 126.73 Z" style="fill: rgb(28, 28, 28);"/>
    <path id="path3020-2" data-name="path3020" class="cls-10" d="M 224.56 127.59 L 225.92 127.87 C 225.55 129.69 225.15 131.51 224.79 133.33 C 225.7 133.55 226.61 133.72 227.51 133.92 C 227.42 134.37 227.32 134.82 227.26 135.28 C 228.62 135.59 230 135.82 231.35 136.18 C 231.25 136.62 231.16 137.06 231.08 137.51 C 231.98 137.72 232.89 137.89 233.8 138.09 C 233.71 138.54 233.59 139 233.54 139.46 C 233.99 139.59 234.45 139.67 234.9 139.77 C 234.8 140.22 234.71 140.66 234.63 141.11 L 235.97 141.4 C 235.63 143.15 235.23 144.89 234.91 146.65 C 234.56 148.1 234.29 149.56 233.97 151.01 C 233.522 150.903 233.068 150.827 232.61 150.78 C 232.33 152.13 232.05 153.48 231.75 154.83 C 231.3 154.75 230.84 154.67 230.4 154.56 C 230.63 153.17 230.95 151.8 231.25 150.42 L 232.6 150.71 L 234.6 141.12 L 233.24 140.83 C 233.31 140.38 233.43 139.94 233.49 139.49 C 233.05 139.343 232.599 139.236 232.14 139.17 C 231.84 140.54 231.58 141.92 231.27 143.28 L 229.92 143.01 C 230.28 141.17 230.69 139.35 231.06 137.51 L 228.31 136.94 C 228.02 138.31 227.75 139.68 227.45 141.05 C 226.99 140.97 226.54 140.87 226.09 140.77 C 226.463 138.937 226.847 137.11 227.24 135.29 C 226.33 135.09 225.41 134.9 224.49 134.72 C 224.1 136.54 223.73 138.37 223.34 140.2 C 222.88 140.11 222.42 140.02 221.97 139.91 C 222.823 135.803 223.683 131.697 224.55 127.59 Z" style="fill: rgb(28, 28, 28);"/>
    <path id="path3026-2" data-name="path3026" class="cls-10" d="M 212.66 136.55 C 214.04 136.81 215.41 137.1 216.78 137.4 C 216.69 137.86 216.61 138.31 216.5 138.77 C 215.58 138.6 214.68 138.39 213.77 138.21 C 213.54 139.11 213.44 140.03 213.19 140.93 C 212.722 140.862 212.258 140.768 211.8 140.65 C 212.09 139.28 212.38 137.91 212.66 136.55 Z" style="fill: rgb(28, 28, 28);"/>
    <path id="path3030-2" data-name="path3030" class="cls-10" d="M 213.22 141 C 213.669 141.048 214.114 141.132 214.55 141.25 C 214.47 141.71 214.37 142.17 214.27 142.63 L 215.65 142.92 C 215.47 143.84 215.27 144.75 215.08 145.66 L 216.44 145.95 C 216.24 146.86 216.11 147.79 215.83 148.68 C 215.379 148.614 214.932 148.524 214.49 148.41 C 214.67 147.5 214.86 146.6 215.04 145.69 L 213.69 145.38 C 213.86 144.48 214.09 143.58 214.2 142.67 C 213.76 142.58 213.32 142.48 212.89 142.36 C 212.945 141.895 213.056 141.439 213.22 141 Z" style="fill: rgb(28, 28, 28);"/>
    <path id="path3038-2" data-name="path3038" class="cls-10" d="M 215.89 148.66 C 216.35 148.72 216.79 148.84 217.24 148.93 C 217.06 149.85 216.86 150.75 216.68 151.66 C 217.13 151.76 217.59 151.85 218.04 151.96 C 217.86 152.88 217.66 153.78 217.48 154.7 L 228.42 157 C 228.63 156.09 228.8 155.17 229 154.26 C 229.47 154.35 229.94 154.45 230.4 154.57 C 230.19 155.95 229.77 157.29 229.52 158.66 C 227.2 158.24 224.89 157.73 222.52 157.26 C 220.15 156.79 218 156.31 215.75 155.81 C 216.02 154.44 216.31 153.07 216.58 151.7 L 215.24 151.41 C 215.44 150.5 215.56 149.56 215.84 148.67 Z" style="fill: rgb(28, 28, 28);"/>
  </g>
  <rect class="cls-5" x="405" y="164.53" width="22" height="22" transform="matrix(0.707107, 0.707107, -0.707107, 0.707107, 260.14624, -247.533981)" style="fill: none; stroke: rgb(35, 31, 32); stroke-miterlimit: 10; stroke-width: 1.5px;"/>
</svg>