<svg id="Layer_1" data-name="Layer 1" xmlns="http://www.w3.org/2000/svg" viewBox="0 0 651 256.53"><defs><style>.cls-1,.cls-3,.cls-4,.cls-5,.cls-6,.cls-7,.cls-8,.cls-9{fill:none;}.cls-1{stroke:#f8db57;}.cls-1,.cls-3,.cls-4,.cls-5,.cls-6,.cls-7,.cls-8{stroke-miterlimit:10;}.cls-2{fill:#f8db57;}.cls-3,.cls-4{stroke:#000;}.cls-3,.cls-9{stroke-linecap:round;}.cls-3,.cls-4,.cls-5,.cls-9{stroke-width:1.5px;}.cls-5,.cls-6,.cls-8,.cls-9{stroke:#231f20;}.cls-6{stroke-width:0.75px;}.cls-7{stroke:#0a0a0a;}.cls-9{stroke-linejoin:round;}.cls-10{fill:#1c1c1c;}</style></defs><title>Hero</title><path class="cls-1" d="M226,64.53c5.86,0,5.86,4,11.71,4s5.86-4,11.71-4,5.86,4,11.71,4,5.86-4,11.72-4,5.85,4,11.71,4,5.86-4,11.72-4,5.86,4,11.72,4"/><path class="cls-1" d="M452,216.53c6.71,0,6.71,4,13.43,4s6.71-4,13.42-4,6.71,4,13.42,4,6.72-4,13.43-4,6.72,4,13.43,4,6.72-4,13.43-4,6.72,4,13.44,4"/><rect class="cls-2" x="83.28" y="54.48" width="31.71" height="32.17" transform="translate(23.92 -25.09) rotate(16.38)"/><rect class="cls-2" x="43.1" y="200.62" width="12.08" height="12.25" transform="translate(-50.27 18.92) rotate(-14.52)"/><rect class="cls-2" x="559.91" y="73.39" width="2.69" height="13.46" transform="translate(460.16 637.98) rotate(-87.85)"/><path class="cls-2" d="M553,48.83l21.52.81L574.31,55l2.7.1.2-5.38A2.7,2.7,0,0,0,574.62,47l-21.52-.81a2.69,2.69,0,0,0-2.79,2.59l-.2,5.38,2.69.1Zm0,0"/><rect class="cls-2" x="561.45" y="66.72" width="2.69" height="16.15" transform="translate(466.98 634.39) rotate(-87.85)"/><path class="cls-2" d="M582.28,58,544.62,56.6a2.69,2.69,0,0,0-2.79,2.59l-.6,16.14a2.69,2.69,0,0,0,2.59,2.79l5.38.2-.3,8.07a2.68,2.68,0,0,0,2.58,2.79L573,90a2.69,2.69,0,0,0,2.8-2.59l.3-8.07,5.38.2a2.69,2.69,0,0,0,2.79-2.59l.6-16.14A2.69,2.69,0,0,0,582.28,58ZM573.1,87.3l-21.51-.81.6-16.14,21.52.81ZM579.29,66a2.69,2.69,0,1,1,2.79-2.59A2.69,2.69,0,0,1,579.29,66Zm0,0"/><path class="cls-2" d="M279.85,189.54a3.71,3.71,0,0,0-2,4.87l6.54,15.29a.88.88,0,0,0,.19.24l5.11,4.12a.39.39,0,0,0,.16.1.67.67,0,0,0,.5,0,.64.64,0,0,0,.37-.56l.24-7.38a.76.76,0,0,0-.05-.27l-6.23-14.45a3.69,3.69,0,0,0-4.87-2Zm6.2,17.64,1,.41a.63.63,0,0,0,.83-.35l.47-1.17,1.34.54-.1,3.14a3.63,3.63,0,0,0-1,.25,2.63,2.63,0,0,0-1,.74l-1.91-1.55Zm-5.57-9.94a2.45,2.45,0,0,1,3.16-3.24,2.46,2.46,0,0,1,1.34,1.31h0l4.19,9.72-.92-.37a.63.63,0,0,0-.82.35l-.47,1.18-1.18-.47a.61.61,0,0,0-.54,0,.62.62,0,0,0-.31.44l-.18,1.05-4.28-10Zm-1.42-3.33a2.43,2.43,0,0,1,1.29-3.21,2.38,2.38,0,0,1,1.87,0,2.43,2.43,0,0,1,1.34,1.31h0l.33.76a3.7,3.7,0,0,0-4.51,1.93l-.32-.77Zm3.92,1.35a.62.62,0,0,0-.82-.33.64.64,0,0,0-.34.83l3.51,8.21a.65.65,0,0,0,.35.34.62.62,0,0,0,.48,0,.63.63,0,0,0,.33-.83L283,195.26Zm0,0"/><circle class="cls-2" cx="428.5" cy="105.03" r="15.5"/><circle class="cls-2" cx="404" cy="61.53" r="7"/><path class="cls-2" d="M157.27,147.76l-15.2,2.69a.75.75,0,0,1-.9-.58l-3-16.89,6.17-8.11,8.59-1.52a.75.75,0,0,1,.89.58l4.08,23A.76.76,0,0,1,157.27,147.76Z"/><path class="cls-2" d="M138.17,132.94l6.28-1.11a1,1,0,0,0,.89-1.17l-1-5.82"/><line class="cls-2" x1="141.47" y1="136.09" x2="149.03" y2="134.75"/><line class="cls-2" x1="142.43" y1="141.29" x2="146.14" y2="140.63"/><line class="cls-2" x1="143.1" y1="145.06" x2="153.05" y2="143.3"/><line class="cls-2" x1="141.98" y1="138.72" x2="146.99" y2="137.83"/><path class="cls-2" d="M311.1,118l1.19,0a.37.37,0,0,1,.37.38v5.85a.38.38,0,0,0,.38.37h4.42a.38.38,0,0,1,.38.38v2.46a.37.37,0,0,1-.38.37H313a.38.38,0,0,0-.38.38v8.37c0,1.57.68,2.6,2.86,2.6h2.3a.38.38,0,0,1,.38.38v2.35a.38.38,0,0,1-.38.38h-2.3c-3.71,0-6.07-1.61-6.07-5.71v-8.37a.38.38,0,0,0-.37-.38h-2.82a.37.37,0,0,1-.38-.37V125a.38.38,0,0,1,.38-.38h2.82a.38.38,0,0,0,.37-.37v-4.42h0L311.1,118Z"/><path class="cls-2" d="M327.9,136.09a.15.15,0,0,0-.29,0L324,142.17c-.11.18-.25.36-.79.36h-2.07c-.68,0-.93-.61-.57-1.18l5-8a.39.39,0,0,0,0-.47l-4.47-7a.7.7,0,0,1,.57-1.18h2c.54,0,.68.18.79.36l3.07,5.18a.15.15,0,0,0,.29,0L331,125c.1-.18.25-.36.78-.36h2a.7.7,0,0,1,.58,1.18l-4.47,7a.38.38,0,0,0,0,.47l5,8c.36.57.11,1.18-.57,1.18H332.3c-.54,0-.68-.18-.79-.36Z"/><path class="cls-2" d="M342,118l1.19,0a.37.37,0,0,1,.37.38v5.85a.38.38,0,0,0,.38.37h4.42a.38.38,0,0,1,.38.38v2.46a.37.37,0,0,1-.38.37H344a.38.38,0,0,0-.38.38v8.37c0,1.57.68,2.6,2.86,2.6h2.3a.38.38,0,0,1,.38.38v2.35a.38.38,0,0,1-.38.38h-2.3c-3.71,0-6.07-1.61-6.07-5.71v-8.37a.38.38,0,0,0-.37-.38h-2.82a.37.37,0,0,1-.38-.37V125a.38.38,0,0,1,.38-.38H340a.38.38,0,0,0,.37-.37l0-4.42h0L342,118Z"/><path class="cls-2" d="M176.57,221.49l13.35-13.35a6.22,6.22,0,0,0-8.79-8.79L165,215.47a9.88,9.88,0,0,0-1.51,2,4.26,4.26,0,0,0,.67,5.19,4.4,4.4,0,0,0,3.52,1.25,4.93,4.93,0,0,0,2-.71,10.76,10.76,0,0,0,1.29-1.07l10.22-10.22a7.3,7.3,0,0,0,1.15-1.63,5.52,5.52,0,0,0,.18-.53,2.55,2.55,0,0,0,0-.87,2.44,2.44,0,0,0-.63-1.31l-.18-.18a2.4,2.4,0,0,0-2.44-.46,5.79,5.79,0,0,0-2.07,1.34l-7,7"/><circle class="cls-2" cx="303.5" cy="141.03" r="2"/><polyline class="cls-2" points="566.03 151.48 560.77 151.48 555.52 151.48 560.77 151.48 560.77 170.51 566.03 170.51 560.77 170.51 555.52 170.51"/><rect class="cls-2" x="538" y="154.76" width="33" height="11.82"/><path id="path3016" class="cls-2" d="M224.11,127.63l2.7.56a12.69,12.69,0,0,1-.25,1.37c-.92-.19-1.83-.39-2.75-.57Z"/><path id="path3018" class="cls-2" d="M222.44,128.73c.46.09.92.19,1.37.26q-1.56,7.55-3.14,15.09c-.46-.08-.92-.18-1.37-.28q.12-.68.27-1.35c-.45-.12-.9-.21-1.36-.3.08-.47.17-.93.29-1.38.46.07.91.17,1.37.26q1.27-6.15,2.57-12.3Z"/><path id="path3020" class="cls-2" d="M226.56,129.59l1.36.28c-.37,1.82-.77,3.64-1.13,5.46.91.22,1.82.39,2.72.59-.09.45-.19.9-.25,1.36,1.36.31,2.74.54,4.09.9-.1.44-.19.88-.27,1.33.9.21,1.81.38,2.72.58-.09.45-.21.91-.26,1.37.45.13.91.21,1.36.31-.1.45-.19.89-.27,1.34l1.34.29c-.34,1.75-.74,3.49-1.06,5.25-.35,1.45-.62,2.91-.94,4.36a10.44,10.44,0,0,0-1.36-.23c-.28,1.35-.56,2.7-.86,4.05-.45-.08-.91-.16-1.35-.27.23-1.39.55-2.76.85-4.14l1.35.29,2-9.59-1.36-.29c.07-.45.19-.89.25-1.34a7.8,7.8,0,0,0-1.35-.32c-.3,1.37-.56,2.75-.87,4.11l-1.35-.27c.36-1.84.77-3.66,1.14-5.5l-2.75-.57c-.29,1.37-.56,2.74-.86,4.11-.46-.08-.91-.18-1.36-.28q.56-2.75,1.15-5.48c-.91-.2-1.83-.39-2.75-.57-.39,1.82-.76,3.65-1.15,5.48-.46-.09-.92-.18-1.37-.29q1.28-6.16,2.58-12.32Z"/><path id="path3026" class="cls-2" d="M214.66,138.55c1.38.26,2.75.55,4.12.85-.09.46-.17.91-.28,1.37-.92-.17-1.82-.38-2.73-.56-.23.9-.33,1.82-.58,2.72a13.15,13.15,0,0,1-1.39-.28C214.09,141.28,214.38,139.91,214.66,138.55Z"/><path id="path3030" class="cls-2" d="M215.22,143a8.65,8.65,0,0,1,1.33.25c-.08.46-.18.92-.28,1.38l1.38.29c-.18.92-.38,1.83-.57,2.74l1.36.29c-.2.91-.33,1.84-.61,2.73a12.72,12.72,0,0,1-1.34-.27c.18-.91.37-1.81.55-2.72l-1.35-.31c.17-.9.4-1.8.51-2.71-.44-.09-.88-.19-1.31-.31a5.87,5.87,0,0,1,.33-1.36Z"/><path id="path3038" class="cls-2" d="M217.89,150.66c.46.06.9.18,1.35.27-.18.92-.38,1.82-.56,2.73.45.1.91.19,1.36.3-.18.92-.38,1.82-.56,2.74L230.42,159c.21-.91.38-1.83.58-2.74.47.09.94.19,1.4.31-.21,1.38-.63,2.72-.88,4.09-2.32-.42-4.63-.93-7-1.4s-4.52-.95-6.77-1.45c.27-1.37.56-2.74.83-4.11l-1.34-.29c.2-.91.32-1.85.6-2.74Z"/><rect class="cls-2" x="407" y="166.53" width="22" height="22" transform="translate(247.96 -243.57) rotate(45)"/><path class="cls-3" d="M224,62.53c5.86,0,5.86,4,11.71,4s5.86-4,11.71-4,5.86,4,11.71,4,5.86-4,11.72-4,5.85,4,11.71,4,5.86-4,11.72-4,5.86,4,11.72,4"/><path class="cls-3" d="M450,214.53c6.71,0,6.71,4,13.43,4s6.71-4,13.42-4,6.71,4,13.42,4,6.72-4,13.43-4,6.72,4,13.43,4,6.72-4,13.43-4,6.72,4,13.44,4"/><rect class="cls-4" x="81.28" y="52.48" width="31.71" height="32.17" transform="translate(23.27 -24.6) rotate(16.38)"/><rect class="cls-4" x="41.1" y="198.62" width="12.08" height="12.25" transform="translate(-49.83 18.36) rotate(-14.52)"/><rect class="cls-5" x="557.91" y="71.39" width="2.69" height="13.46" transform="translate(460.24 634.05) rotate(-87.85)"/><path class="cls-5" d="M551,46.83l21.52.81L572.31,53l2.7.1.2-5.38A2.7,2.7,0,0,0,572.62,45l-21.52-.81a2.69,2.69,0,0,0-2.79,2.59l-.2,5.38,2.69.1Zm0,0"/><rect class="cls-5" x="559.45" y="64.72" width="2.69" height="16.15" transform="translate(467.05 630.47) rotate(-87.85)"/><path class="cls-5" d="M580.28,56,542.62,54.6a2.69,2.69,0,0,0-2.79,2.59l-.6,16.14a2.69,2.69,0,0,0,2.59,2.79l5.38.2-.3,8.07a2.68,2.68,0,0,0,2.58,2.79L571,88a2.69,2.69,0,0,0,2.8-2.59l.3-8.07,5.38.2a2.69,2.69,0,0,0,2.79-2.59l.6-16.14A2.69,2.69,0,0,0,580.28,56ZM571.1,85.3l-21.51-.81.6-16.14,21.52.81ZM577.29,64a2.69,2.69,0,1,1,2.79-2.59A2.69,2.69,0,0,1,577.29,64Zm0,0"/><path class="cls-6" d="M277.85,187.54a3.71,3.71,0,0,0-2,4.87l6.54,15.29a.88.88,0,0,0,.19.24l5.11,4.12a.39.39,0,0,0,.16.1.67.67,0,0,0,.5,0,.64.64,0,0,0,.37-.56l.24-7.38a.76.76,0,0,0-.05-.27l-6.23-14.45a3.69,3.69,0,0,0-4.87-2Zm6.2,17.64,1,.41a.63.63,0,0,0,.83-.35l.47-1.17,1.34.54-.1,3.14a3.63,3.63,0,0,0-1,.25,2.63,2.63,0,0,0-1,.74l-1.91-1.55Zm-5.57-9.94a2.45,2.45,0,0,1,3.16-3.24,2.46,2.46,0,0,1,1.34,1.31h0l4.19,9.72-.92-.37a.63.63,0,0,0-.82.35l-.47,1.18-1.18-.47a.61.61,0,0,0-.54,0,.62.62,0,0,0-.31.44l-.18,1.05-4.28-10Zm-1.42-3.33a2.43,2.43,0,0,1,1.29-3.21,2.38,2.38,0,0,1,1.87,0,2.43,2.43,0,0,1,1.34,1.31h0l.33.76a3.7,3.7,0,0,0-4.51,1.93l-.32-.77Zm3.92,1.35a.62.62,0,0,0-.82-.33.64.64,0,0,0-.34.83l3.51,8.21a.65.65,0,0,0,.35.34.62.62,0,0,0,.48,0,.63.63,0,0,0,.33-.83L281,193.26Zm0,0"/><circle class="cls-5" cx="426.5" cy="103.03" r="15.5"/><circle class="cls-5" cx="402" cy="59.53" r="7"/><path class="cls-4" d="M155.27,145.76l-15.2,2.69a.75.75,0,0,1-.9-.58l-3-16.89,6.17-8.11,8.59-1.52a.75.75,0,0,1,.89.58l4.08,23A.76.76,0,0,1,155.27,145.76Z"/><path class="cls-4" d="M136.17,130.94l6.28-1.11a1,1,0,0,0,.89-1.17l-1-5.82"/><line class="cls-3" x1="139.47" y1="134.09" x2="147.03" y2="132.75"/><line class="cls-3" x1="140.43" y1="139.29" x2="144.14" y2="138.63"/><line class="cls-3" x1="141.1" y1="143.06" x2="151.05" y2="141.3"/><line class="cls-3" x1="139.98" y1="136.72" x2="144.99" y2="135.83"/><path class="cls-7" d="M309.1,116l1.19,0a.37.37,0,0,1,.37.38v5.85a.38.38,0,0,0,.38.37h4.42a.38.38,0,0,1,.38.38v2.46a.37.37,0,0,1-.38.37H311a.38.38,0,0,0-.38.38v8.37c0,1.57.68,2.6,2.86,2.6h2.3a.38.38,0,0,1,.38.38v2.35a.38.38,0,0,1-.38.38h-2.3c-3.71,0-6.07-1.61-6.07-5.71v-8.37a.38.38,0,0,0-.37-.38h-2.82a.37.37,0,0,1-.38-.37V123a.38.38,0,0,1,.38-.38h2.82a.38.38,0,0,0,.37-.37v-4.42h0L309.1,116Z"/><path class="cls-7" d="M325.9,134.09a.15.15,0,0,0-.29,0L322,140.17c-.11.18-.25.36-.79.36h-2.07c-.68,0-.93-.61-.57-1.18l5-8a.39.39,0,0,0,0-.47l-4.47-7a.7.7,0,0,1,.57-1.18h2c.54,0,.68.18.79.36l3.07,5.18a.15.15,0,0,0,.29,0L329,123c.1-.18.25-.36.78-.36h2a.7.7,0,0,1,.58,1.18l-4.47,7a.38.38,0,0,0,0,.47l5,8c.36.57.11,1.18-.57,1.18H330.3c-.54,0-.68-.18-.79-.36Z"/><path class="cls-7" d="M340,116l1.19,0a.37.37,0,0,1,.37.38v5.85a.38.38,0,0,0,.38.37h4.42a.38.38,0,0,1,.38.38v2.46a.37.37,0,0,1-.38.37H342a.38.38,0,0,0-.38.38v8.37c0,1.57.68,2.6,2.86,2.6h2.3a.38.38,0,0,1,.38.38v2.35a.38.38,0,0,1-.38.38h-2.3c-3.71,0-6.07-1.61-6.07-5.71v-8.37a.38.38,0,0,0-.37-.38h-2.82a.37.37,0,0,1-.38-.37V123a.38.38,0,0,1,.38-.38H338a.38.38,0,0,0,.37-.37l0-4.42h0L340,116Z"/><path class="cls-4" d="M174.57,219.49l13.35-13.35a6.22,6.22,0,0,0-8.79-8.79L163,213.47a9.88,9.88,0,0,0-1.51,2,4.26,4.26,0,0,0,.67,5.19,4.4,4.4,0,0,0,3.52,1.25,4.93,4.93,0,0,0,2-.71,10.76,10.76,0,0,0,1.29-1.07l10.22-10.22a7.3,7.3,0,0,0,1.15-1.63,5.52,5.52,0,0,0,.18-.53,2.55,2.55,0,0,0,0-.87,2.44,2.44,0,0,0-.63-1.31l-.18-.18a2.4,2.4,0,0,0-2.44-.46,5.79,5.79,0,0,0-2.07,1.34l-7,7"/><circle class="cls-8" cx="301.5" cy="139.03" r="2"/><polyline class="cls-9" points="564.03 149.48 558.77 149.48 553.52 149.48 558.77 149.48 558.77 168.51 564.03 168.51 558.77 168.51 553.52 168.51"/><rect class="cls-5" x="536" y="152.76" width="33" height="11.82"/><path id="path3016-2" data-name="path3016" class="cls-10" d="M222.11,125.63l2.7.56a12.69,12.69,0,0,1-.25,1.37c-.92-.19-1.83-.39-2.75-.57Z"/><path id="path3018-2" data-name="path3018" class="cls-10" d="M220.44,126.73c.46.09.92.19,1.37.26q-1.56,7.55-3.14,15.09c-.46-.08-.92-.18-1.37-.28q.12-.68.27-1.35c-.45-.12-.9-.21-1.36-.3.08-.47.17-.93.29-1.38.46.07.91.17,1.37.26q1.27-6.15,2.57-12.3Z"/><path id="path3020-2" data-name="path3020" class="cls-10" d="M224.56,127.59l1.36.28c-.37,1.82-.77,3.64-1.13,5.46.91.22,1.82.39,2.72.59-.09.45-.19.9-.25,1.36,1.36.31,2.74.54,4.09.9-.1.44-.19.88-.27,1.33.9.21,1.81.38,2.72.58-.09.45-.21.91-.26,1.37.45.13.91.21,1.36.31-.1.45-.19.89-.27,1.34l1.34.29c-.34,1.75-.74,3.49-1.06,5.25-.35,1.45-.62,2.91-.94,4.36a10.44,10.44,0,0,0-1.36-.23c-.28,1.35-.56,2.7-.86,4.05-.45-.08-.91-.16-1.35-.27.23-1.39.55-2.76.85-4.14l1.35.29,2-9.59-1.36-.29c.07-.45.19-.89.25-1.34a7.8,7.8,0,0,0-1.35-.32c-.3,1.37-.56,2.75-.87,4.11l-1.35-.27c.36-1.84.77-3.66,1.14-5.5l-2.75-.57c-.29,1.37-.56,2.74-.86,4.11-.46-.08-.91-.18-1.36-.28q.56-2.75,1.15-5.48c-.91-.2-1.83-.39-2.75-.57-.39,1.82-.76,3.65-1.15,5.48-.46-.09-.92-.18-1.37-.29q1.28-6.16,2.58-12.32Z"/><path id="path3026-2" data-name="path3026" class="cls-10" d="M212.66,136.55c1.38.26,2.75.55,4.12.85-.09.46-.17.91-.28,1.37-.92-.17-1.82-.38-2.73-.56-.23.9-.33,1.82-.58,2.72a13.15,13.15,0,0,1-1.39-.28C212.09,139.28,212.38,137.91,212.66,136.55Z"/><path id="path3030-2" data-name="path3030" class="cls-10" d="M213.22,141a8.65,8.65,0,0,1,1.33.25c-.08.46-.18.92-.28,1.38l1.38.29c-.18.92-.38,1.83-.57,2.74l1.36.29c-.2.91-.33,1.84-.61,2.73a12.72,12.72,0,0,1-1.34-.27c.18-.91.37-1.81.55-2.72l-1.35-.31c.17-.9.4-1.8.51-2.71-.44-.09-.88-.19-1.31-.31a5.87,5.87,0,0,1,.33-1.36Z"/><path id="path3038-2" data-name="path3038" class="cls-10" d="M215.89,148.66c.46.06.9.18,1.35.27-.18.92-.38,1.82-.56,2.73.45.1.91.19,1.36.3-.18.92-.38,1.82-.56,2.74L228.42,157c.21-.91.38-1.83.58-2.74.47.09.94.19,1.4.31-.21,1.38-.63,2.72-.88,4.09-2.32-.42-4.63-.93-7-1.4s-4.52-.95-6.77-1.45c.27-1.37.56-2.74.83-4.11l-1.34-.29c.2-.91.32-1.85.6-2.74Z"/><rect class="cls-5" x="405" y="164.53" width="22" height="22" transform="translate(245.96 -242.74) rotate(45)"/></svg>