<?xml version="1.0" encoding="utf-8"?>
<svg version="1.1" id="plug" x="0px" y="0px" viewBox="0 0 20 20" style="enable-background:new 0 0 512.004 512.004;" width="20px" height="20px" xmlns="http://www.w3.org/2000/svg">
  
  <style>
    #top-plug {transition: transform 0.19s cubic-bezier(0.455, 0.03, 0.515, 0.955);}
    #plug:hover #top-plug {
      transform: translate(0.087943,0.195082);
    }
    
    #bottom-plug {transition: transform 0.19s cubic-bezier(0.455, 0.03, 0.515, 0.955);}
    #plug:hover #bottom-plug {
      transform: translate(1px, -1px);
    }
  </style>
  
  <g id="bottom-plug" transform="matrix(0.0383, 0, 0, 0.0383, 0.197943, 0.185082)">
    <!--<title>bottom plug</title>-->
    <path style="fill: rgb(255, 255, 255);" d="M 120.239 233.332 C 122.203 216.018 195.891 216.574 193.915 233.982 L 280.737 316.014 C 303.038 326.592 291.602 381.282 287.138 379.163 L 219.828 445.569 L 63.289 295.831" transform="matrix(-0.999905, 0.013762, -0.013762, -0.999905, 361.91554, 663.710865)">
      <!--<title>background</title>-->
    </path>
    <path d="M 107.727 427.51 L 84.44 404.223 C 82.844 402.619 80.668 401.723 78.407 401.723 C 76.146 401.723 73.978 402.619 72.374 404.223 L 2.502 474.094 C -0.834 477.431 -0.834 482.824 2.502 486.16 L 25.789 509.447 C 27.385 511.051 29.561 511.947 31.822 511.947 C 34.092 511.947 36.259 511.051 37.855 509.447 L 107.726 439.576 C 111.063 436.24 111.063 430.847 107.727 427.51 Z M 31.823 491.348 L 20.602 480.127 L 78.407 422.322 L 89.628 433.543 L 31.823 491.348 Z" style="fill: rgb(38, 38, 38);">
      <!--<title>wire</title>-->
    </path>
    <path d="M 148.482 421.699 L 90.251 363.468 C 88.655 361.864 86.479 360.968 84.218 360.968 C 81.957 360.968 79.789 361.864 78.185 363.468 L 66.964 374.689 C 56.98 384.673 56.98 400.903 66.964 410.887 L 101.063 444.986 C 106.055 449.978 112.609 452.47 119.162 452.47 C 125.715 452.47 132.269 449.978 137.253 444.986 L 148.483 433.765 C 150.087 432.169 150.983 430.002 150.983 427.732 C 150.982 425.471 150.086 423.304 148.482 421.699 Z M 125.212 432.912 C 121.884 436.223 116.474 436.24 113.146 432.912 L 79.047 398.813 C 75.719 395.485 75.719 390.075 79.047 386.747 L 84.235 381.559 L 130.4 427.724 L 125.212 432.912 Z" style="fill: rgb(38, 38, 38);">
      <!--<title>adapter</title>-->
    </path>
    <path d="M 299.881 363.451 L 148.491 212.061 C 145.291 208.861 139.625 208.861 136.425 212.061 L 73.842 274.644 C 47.235 301.259 47.235 344.566 73.842 371.173 L 140.777 438.108 C 153.671 451.002 170.806 458.102 189.042 458.102 C 207.278 458.102 224.413 451.002 237.307 438.1 L 299.882 375.517 C 303.217 372.18 303.217 366.787 299.881 363.451 Z M 225.231 426.043 C 215.563 435.711 202.712 441.036 189.041 441.036 C 175.362 441.036 162.511 435.711 152.843 426.043 L 85.908 359.108 C 65.957 339.157 65.957 306.679 85.908 286.72 L 142.458 230.17 L 281.773 369.494 L 225.231 426.043 Z" style="fill: rgb(38, 38, 38);">
      <!--<title>body</title>-->
    </path>
    <path d="M 247.494 182.962 C 238.039 173.516 221.57 173.507 212.132 182.962 L 159.72 235.365 C 158.116 236.961 157.22 239.128 157.22 241.398 C 157.22 243.668 158.116 245.827 159.72 247.431 L 183.007 270.718 C 184.671 272.382 186.856 273.218 189.04 273.218 C 191.224 273.218 193.409 272.382 195.09 270.718 L 247.493 218.315 C 252.212 213.596 254.815 207.315 254.815 200.634 C 254.815 193.953 252.213 187.681 247.494 182.962 Z M 235.403 206.241 L 189.033 252.611 L 177.812 241.39 L 224.182 195.02 C 227.177 192.016 232.4 192.016 235.403 195.029 C 236.896 196.522 237.724 198.511 237.724 200.627 C 237.724 202.751 236.905 204.739 235.403 206.241 Z" style="fill: rgb(38, 38, 38);">
      <!--<title>left_prong</title>-->
    </path>
    <path d="M 329.005 264.473 C 319.251 254.719 303.396 254.711 293.643 264.473 L 241.24 316.876 C 239.636 318.472 238.74 320.639 238.74 322.909 C 238.74 325.179 239.636 327.338 241.24 328.942 L 264.527 352.229 C 266.191 353.893 268.376 354.729 270.56 354.729 C 272.745 354.729 274.929 353.901 276.593 352.237 L 329.005 299.834 C 338.75 290.081 338.75 274.226 329.005 264.473 Z M 316.93 287.76 L 270.56 334.13 L 259.339 322.909 L 305.709 276.539 C 308.713 273.535 313.935 273.535 316.93 276.539 C 320.019 279.628 320.019 284.671 316.93 287.76 Z" style="fill: rgb(38, 38, 38);">
      <!--<title>right_prong</title>-->
    </path>
    <path d="M 253.297 363.459 L 148.491 258.653 C 145.155 255.316 139.761 255.316 136.425 258.653 L 89.842 305.236 C 86.505 308.573 86.505 313.966 89.842 317.302 L 194.657 422.108 C 196.321 423.772 198.506 424.608 200.69 424.608 C 202.866 424.608 205.051 423.772 206.715 422.108 L 253.298 375.525 C 256.634 372.189 256.634 366.796 253.297 363.459 Z M 200.681 404.01 L 107.941 311.27 L 142.458 276.753 L 235.198 369.493 L 200.681 404.01 Z" style="fill: rgb(38, 38, 38);">
      <!--<title>box_shadow</title>-->
    </path>
    <path d="M 195.074 351.82 L 160.139 316.876 C 156.802 313.54 151.409 313.539 148.073 316.876 C 144.737 320.213 144.737 325.606 148.073 328.942 L 183.008 363.886 C 184.672 365.55 186.857 366.386 189.041 366.386 C 191.225 366.386 193.41 365.55 195.074 363.886 C 198.411 360.549 198.411 355.156 195.074 351.82 Z" style="fill: rgb(38, 38, 38);">
      <!--<title>inner_shadow</title>-->
    </path>
  </g>
  <g id="top-plug" transform="matrix(0.0383, 0, 0, 0.0383, 0.197943, 0.185082)">
    <!--<title>top_plug</title>-->
    <path style="fill: rgb(255, 255, 255);" d="M 287.802 70.666 C 289.51 53.582 358.257 54.13 356.539 71.308 L 438.126 152.252 C 459.005 162.691 448.731 216.656 444.551 214.566 L 382.236 280.092 L 235.124 132.337">
      <!--<title>background</title>-->
    </path>
    <path d="M 509.502 25.744 L 486.214 2.457 C 483.014 -0.743 477.348 -0.743 474.148 2.457 L 404.277 72.328 C 400.941 75.664 400.941 81.058 404.277 84.394 L 427.564 107.681 C 429.16 109.285 431.336 110.181 433.597 110.181 C 435.858 110.181 438.026 109.285 439.63 107.681 L 509.501 37.81 C 512.838 34.474 512.838 29.081 509.502 25.744 Z M 433.598 89.582 L 422.377 78.361 L 480.182 20.556 L 491.403 31.777 L 433.598 89.582 Z" style="fill: rgb(38, 38, 38);">
      <!--<title>wire</title>-->
    </path>
    <path d="M 445.033 101.025 L 410.934 66.926 C 400.95 56.942 384.72 56.942 374.736 66.926 L 363.506 78.147 C 361.902 79.743 361.006 81.91 361.006 84.18 C 361.006 86.441 361.902 88.609 363.506 90.213 L 421.738 148.444 C 423.334 150.048 425.51 150.944 427.771 150.944 C 430.041 150.944 432.208 150.039 433.813 148.444 L 445.034 137.223 C 455.017 127.239 455.017 111.009 445.033 101.025 Z M 432.958 125.149 L 427.77 130.337 L 381.613 84.172 L 386.801 78.984 C 390.129 75.673 395.539 75.656 398.867 78.984 L 432.958 113.083 C 436.286 116.411 436.286 121.821 432.958 125.149 Z" style="fill: rgb(38, 38, 38);">
      <!--<title>adapter</title>-->
    </path>
    <path d="M 438.155 140.722 L 371.22 73.787 C 358.326 60.893 341.191 53.793 322.955 53.793 C 304.728 53.793 287.593 60.893 274.699 73.787 L 223.764 124.722 C 222.16 126.318 221.264 128.485 221.264 130.755 C 221.264 133.025 222.16 135.184 223.764 136.788 L 375.154 288.186 C 376.818 289.85 379.003 290.686 381.187 290.686 C 383.372 290.686 385.556 289.85 387.22 288.186 L 438.155 237.251 C 464.762 210.636 464.762 167.329 438.155 140.722 Z M 426.089 225.185 L 381.187 270.087 L 241.862 130.755 L 286.764 85.861 C 296.432 76.193 309.283 70.868 322.954 70.868 C 336.633 70.868 349.484 76.193 359.152 85.861 L 426.087 152.796 C 446.039 172.748 446.039 205.226 426.089 225.185 Z" style="fill: rgb(38, 38, 38);">
      <!--<title>body</title>-->
    </path>
    <path d="M 369.76 118.911 L 346.464 95.606 C 333.502 82.652 312.433 82.652 299.48 95.606 L 276.184 118.911 C 272.847 122.248 272.847 127.641 276.184 130.977 C 279.521 134.313 284.922 134.313 288.25 130.977 L 311.546 107.672 C 317.852 101.374 328.101 101.374 334.398 107.672 L 357.694 130.977 C 359.358 132.641 361.543 133.477 363.727 133.477 C 365.903 133.477 368.087 132.641 369.76 130.977 C 373.096 127.641 373.096 122.247 369.76 118.911 Z" style="fill: rgb(38, 38, 38);">
      <!--<title>shadow</title>-->
    </path>
  </g>
</svg>